<?xml version="1.0" encoding="utf-8"?>
<!-- Generator: Adobe Illustrator 20.1.0, SVG Export Plug-In . SVG Version: 6.00 Build 0)  -->
<svg version="1.1" id="co_x5F_player" xmlns="http://www.w3.org/2000/svg" xmlns:xlink="http://www.w3.org/1999/xlink" x="0px"
	 y="0px" viewBox="0 0 40 40" style="enable-background:new 0 0 40 40;" xml:space="preserve">
<style type="text/css">
	.st0{fill:#FFFFFF;}
</style>
<path class="st0" d="M32.7,32.7c-7,7-18.4,7-25.5,0s-7-18.4,0-25.4c7-7,18.4-7,25.5,0C39.8,14.3,39.8,25.7,32.7,32.7z M28.8,15.2
	c1-1,1-2.7,0-3.7l-0.3-0.3c-1-1-2.7-1-3.7,0L20,16l-4.8-4.8c-1-1-2.7-1-3.7,0l-0.3,0.3c-1,1-1,2.7,0,3.7L16,20l-4.8,4.8
	c-1,1-1,2.7,0,3.7l0.3,0.3c1,1,2.7,1,3.7,0L20,24l4.8,4.8c1,1,2.7,1,3.7,0l0.3-0.3c1-1,1-2.7,0-3.7L24,20L28.8,15.2z"/>
</svg>
